<svg width="113" height="113" xmlns="http://www.w3.org/2000/svg" xmlns:xlink="http://www.w3.org/1999/xlink" xml:space="preserve" overflow="hidden"><g transform="translate(-17 -140)"><path d="M42.2743 154.417C47.0679 171.787 48.241 189.957 45.7208 207.8L44.5532 215.992C44.1839 218.567 41.7977 220.354 39.2233 219.985 36.649 219.616 34.8614 217.23 35.2307 214.655L36.403 206.468C39.0434 187.809 37.327 168.793 31.3887 150.909 30.5643 148.443 31.8953 145.775 34.3616 144.951 34.8362 144.793 35.333 144.711 35.8333 144.708 76.1626 144.737 110.184 174.74 115.254 214.75 115.515 217.337 113.63 219.646 111.042 219.907 108.541 220.16 106.283 218.404 105.912 215.917 101.744 183.031 75.2835 157.459 42.2743 154.417ZM120.583 223.182C117.983 223.182 115.875 225.29 115.875 227.89 115.749 233.959 110.728 238.776 104.661 238.65 98.7696 238.528 94.0232 233.782 93.9012 227.89 93.9012 225.29 91.7933 223.182 89.1929 223.182 86.5925 223.182 84.4845 225.29 84.4845 227.89 84.4845 233.957 79.5667 238.875 73.5 238.875 67.4333 238.875 62.5155 233.957 62.5155 227.89 62.5155 225.29 60.4075 223.182 57.8071 223.182 55.2068 223.182 53.0988 225.29 53.0988 227.89 52.9732 233.959 47.9523 238.776 41.8844 238.65 35.9934 238.528 31.2469 233.782 31.125 227.89 31.125 225.29 29.017 223.182 26.4167 223.182 23.8163 223.182 21.7083 225.29 21.7083 227.89 21.7052 239.155 30.8344 248.289 42.0991 248.293 48.1726 248.294 53.9309 245.59 57.8071 240.914 64.9864 249.581 77.8326 250.787 86.4992 243.607 87.4795 242.796 88.3812 241.894 89.1929 240.914 96.382 249.586 109.24 250.788 117.913 243.598 122.588 239.722 125.294 233.964 125.292 227.89 125.292 225.29 123.184 223.182 120.583 223.182Z" fill="#FFFFFF"/></g></svg>