<svg width="127" height="127" xmlns="http://www.w3.org/2000/svg" xmlns:xlink="http://www.w3.org/1999/xlink" xml:space="preserve" overflow="hidden"><g transform="translate(-3 -489)"><path d="M126.402 578.853 106.326 578.853 111.821 528.971C112.319 524.452 110.865 519.918 107.831 516.532 104.797 513.145 100.45 511.203 95.9033 511.203L82.7427 511.203C80.7039 504.154 74.1965 498.983 66.4996 498.983 58.8026 498.983 52.2952 504.154 50.2564 511.203L37.0967 511.203C32.5504 511.203 28.2029 513.145 25.169 516.532 22.1355 519.918 20.6808 524.452 21.1785 528.971L26.6737 578.853 6.59833 578.853C4.61123 578.853 3 580.464 3 582.451L3 602.418C3 604.405 4.61123 606.017 6.59833 606.017L126.402 606.017C128.389 606.017 130 604.405 130 602.418L130 582.451C130 580.464 128.389 578.853 126.402 578.853ZM66.5 506.18C71.8558 506.18 76.2131 510.537 76.2131 515.893 76.2131 521.249 71.8558 525.607 66.5 525.607 61.1442 525.607 56.7868 521.249 56.7868 515.893 56.7868 510.537 61.1442 506.18 66.5 506.18ZM28.332 528.183C28.0536 525.658 28.834 523.225 30.5291 521.334 32.2241 519.442 34.5567 518.4 37.0967 518.4L49.7775 518.4C50.9923 526.54 58.0278 532.803 66.5004 532.803 74.9731 532.803 82.0085 526.54 83.2234 518.4L95.9041 518.4C98.4441 518.4 100.777 519.442 102.472 521.334 104.167 523.225 104.947 525.658 104.669 528.183L99.0868 578.852 96.7226 578.852 96.7226 554.209C96.7226 546.991 92.1219 540.607 85.2738 538.325 85.2464 538.316 80.4948 536.858 80.4948 536.858 78.6642 536.294 76.7143 537.266 76.0583 539.065L71.1909 552.421C71.1909 552.421 69.9983 547.123 69.9919 547.097L72.8787 542.097C73.5213 540.984 73.5213 539.612 72.8787 538.499 72.236 537.385 71.048 536.7 69.7622 536.7L63.2412 536.7C61.9554 536.7 60.7679 537.386 60.1248 538.499 59.4816 539.612 59.4821 540.984 60.1248 542.097L63.0116 547.097C63.0051 547.123 61.8125 552.421 61.8125 552.421L56.9451 539.065C56.2895 537.266 54.3384 536.294 52.5086 536.858 52.5086 536.858 47.757 538.316 47.7297 538.325 40.8815 540.608 36.2808 546.991 36.2808 554.209L36.2808 578.852 33.9166 578.852 28.332 528.183ZM81.6485 544.74 83.0348 545.165C86.9184 546.478 89.5246 550.107 89.5246 554.21L89.5246 578.853 70.0244 578.853 81.6485 544.74ZM62.9756 578.853 43.4754 578.853 43.4754 554.21C43.4754 550.107 46.0816 546.478 49.9652 545.165L51.3515 544.74 62.9756 578.853ZM122.803 598.82 10.1967 598.82 10.1967 586.049 122.803 586.049 122.803 598.82Z" fill="#FFFFFF"/></g></svg>