<svg width="113" height="112" xmlns="http://www.w3.org/2000/svg" xmlns:xlink="http://www.w3.org/1999/xlink" xml:space="preserve" overflow="hidden"><g transform="translate(-17 -392)"><path d="M21.0525 12.2076C21.0525 5.93425 26.0715 0.875 32.3851 0.875 38.6584 0.875 43.7176 5.93425 43.7176 12.2076 43.6774 18.5216 38.6181 23.5401 32.3851 23.5401 26.1117 23.5401 21.0525 18.4809 21.0525 12.2076ZM83.5625 60.8125 63 60.8125 63 42.4375C63 33.4858 55.1771 26.25 46.375 26.25L18.8125 26.25C9.149 26.25 0.870625 34.6237 0.875 42.875L0.875 76.5625C0.863625 80.2957 3.50044 82.2452 6.125 82.25 8.75612 82.2548 11.375 80.3053 11.375 76.5625L11.375 43.75 14.875 43.75 14.875 82.25 49 82.25 49 43.75 52.5 43.75 52.5354 65.7869C52.5122 69.6058 54.8726 71.232 57.3125 71.3125L83.5625 71.3125C90.7213 71.3125 90.7213 60.8125 83.5625 60.8125ZM111.125 34.8954C111.125 46.6817 101.536 56.2708 89.7496 56.2708 77.9634 56.2708 68.3743 46.6817 68.3743 34.8954 68.3743 23.9474 76.6482 14.8969 87.2712 13.6644L87.2712 10.9589 84.3159 10.9589 84.3159 5.83625 95.5452 5.83625 95.5452 10.9585 92.393 10.9585 92.393 13.6832C94.7691 13.9777 97.0253 14.6632 99.0951 15.6739L100.895 12.8196 105.228 15.5509 103.396 18.4555C108.115 22.3799 111.125 28.2927 111.125 34.8954ZM106.007 34.8954C106.007 25.9315 98.714 18.6384 89.7496 18.6384 80.7852 18.6384 73.4926 25.9311 73.4926 34.8954 73.4926 43.8598 80.7852 51.1525 89.7496 51.1525 98.714 51.1525 106.007 43.8594 106.007 34.8954ZM89.8323 21.5972 89.8323 34.7966 103.032 34.7966C102.953 27.5319 97.1071 21.6318 89.8323 21.5972Z" fill="#FFFFFF" transform="matrix(1.00893 0 0 1 17 406.438)"/></g></svg>