<svg width="113" height="113" xmlns="http://www.w3.org/2000/svg" xmlns:xlink="http://www.w3.org/1999/xlink" xml:space="preserve" overflow="hidden"><g transform="translate(-5 -11)"><path d="M30.0093 61.6687C43.7499 37.3062 50.6202 25.125 61.5 25.125 72.3795 25.125 79.2499 37.3062 92.9907 61.6687L94.7027 64.7047C106.121 84.9496 111.831 95.072 106.67 102.474 101.51 109.875 88.7443 109.875 63.2124 109.875L59.7876 109.875C34.2555 109.875 21.4894 109.875 16.3295 102.474 11.1695 95.072 16.8787 84.9496 28.2971 64.7047L30.0093 61.6687Z" stroke="#FFFFFF" stroke-width="7.0625" fill="none"/><path d="M61.5 48.6667 61.5 72.2083" stroke="#FFFFFF" stroke-width="7.0625" stroke-linecap="round" fill="none"/><path d="M66.2083 86.3333C66.2083 88.9337 64.1003 91.0417 61.5 91.0417 58.8997 91.0417 56.7917 88.9337 56.7917 86.3333 56.7917 83.733 58.8997 81.625 61.5 81.625 64.1003 81.625 66.2083 83.733 66.2083 86.3333Z" stroke="#FFFFFF" stroke-width="4.70833" fill="none"/></g></svg>