<svg width="114" height="114" xmlns="http://www.w3.org/2000/svg" xmlns:xlink="http://www.w3.org/1999/xlink" xml:space="preserve" overflow="hidden"><defs><clipPath id="clip0"><rect x="9" y="269" width="114" height="114"/></clipPath></defs><g clip-path="url(#clip0)" transform="translate(-9 -269)"><path d="M122.64 362.908C122.412 362.219 122.101 361.57 121.722 360.941L121.404 360.411 121.009 360.08C120.733 359.794 118.546 357.315 115.685 349.728 112.641 341.655 108.839 327.831 105.654 304.878L105.65 304.878C104.607 294.871 99.864 285.959 92.8189 279.553 85.7514 273.118 76.3172 269.182 66.0031 269.185 55.6859 269.182 46.2517 273.118 39.1811 279.553 32.1391 285.959 27.393 294.871 26.3527 304.878L26.3496 304.878C22.9554 329.328 18.8614 343.421 15.7305 351.233 14.1665 355.141 12.8468 357.476 11.9927 358.757 11.5688 359.399 11.2606 359.778 11.0968 359.968 11.0391 360.032 11.0068 360.067 10.9877 360.086L10.5991 360.411 10.2812 360.941C9.90243 361.57 9.59093 362.219 9.36605 362.907 9.13805 363.593 9 364.328 9 365.093 8.99688 366 9.21197 366.936 9.60696 367.734 9.95052 368.437 10.413 369.025 10.9042 369.495 11.7743 370.317 12.7026 370.808 13.6016 371.171 14.9534 371.706 16.2958 371.961 17.5801 372.123 18.8581 372.279 20.0751 372.324 21.1027 372.327 21.2503 372.324 21.3948 372.324 21.536 372.324L21.5618 372.321 21.5714 372.321 21.6164 372.321C22.1654 372.324 22.5475 372.395 22.8782 372.502 23.1672 372.597 23.4241 372.722 23.6971 372.899 24.1722 373.204 24.7053 373.695 25.3283 374.387 25.7938 374.899 26.3077 375.516 26.908 376.179 27.3609 376.675 27.8619 377.203 28.4461 377.723 29.3194 378.502 30.3953 379.276 31.7085 379.835 33.0186 380.398 34.5471 380.721 36.1785 380.718 37.4018 380.718 38.5547 380.56 39.6079 380.265 40.5295 380.008 41.3709 379.643 42.1157 379.228 43.4227 378.495 44.4213 377.616 45.24 376.835 45.8534 376.248 46.3704 375.708 46.8391 375.259 47.1891 374.922 47.5102 374.636 47.8088 374.401 48.2616 374.055 48.6533 373.822 49.0997 373.653 49.5493 373.489 50.0758 373.374 50.8689 373.371 51.3924 373.374 51.7618 373.449 52.0989 373.566 52.3944 373.672 52.6702 373.817 52.9755 374.026 53.5021 374.39 54.1026 374.983 54.7768 375.772 55.2842 376.36 55.8333 377.049 56.4594 377.784 57.4003 378.881 58.5272 380.104 60.1072 381.116 60.8938 381.617 61.7962 382.053 62.7915 382.353 63.787 382.654 64.8722 382.814 66.0027 382.814 67.3128 382.817 68.5652 382.596 69.6859 382.199 70.6684 381.851 71.545 381.374 72.303 380.844 73.6389 379.911 74.6342 378.837 75.4789 377.858 76.1148 377.121 76.6639 376.427 77.1742 375.833 77.9386 374.932 78.6064 374.284 79.1844 373.923 79.4765 373.736 79.7464 373.611 80.0483 373.52 80.3469 373.431 80.6842 373.37 81.1368 373.37 81.75 373.37 82.2029 373.444 82.5819 373.55 82.9159 373.643 83.1984 373.765 83.4841 373.924 83.9786 374.202 84.4989 374.616 85.1153 375.214 85.5808 375.657 86.0947 376.19 86.7017 376.776 87.1577 377.216 87.668 377.68 88.2558 378.139 89.1389 378.826 90.2177 379.497 91.499 379.974 92.7802 380.453 94.2444 380.721 95.8244 380.717 97.0864 380.717 98.2872 380.531 99.3726 380.178 100.323 379.873 101.183 379.449 101.932 378.967 103.245 378.119 104.225 377.131 105.034 376.244 105.637 375.578 106.154 374.96 106.627 374.44 106.98 374.048 107.304 373.714 107.606 373.442 108.062 373.035 108.447 372.779 108.842 372.608 109.243 372.439 109.677 372.327 110.387 372.32L110.444 372.323 110.467 372.323 110.489 372.323C110.611 372.323 110.749 372.323 110.9 372.323 111.793 372.323 112.833 372.288 113.932 372.177 114.757 372.092 115.614 371.964 116.481 371.763 117.133 371.61 117.795 371.416 118.456 371.148 118.954 370.945 119.455 370.701 119.956 370.385 120.698 369.912 121.455 369.263 122.049 368.341 122.344 367.884 122.592 367.362 122.756 366.806 122.919 366.251 123 365.665 123 365.092 123 364.328 122.862 363.596 122.64 362.908ZM113.328 364.856C112.506 364.948 111.639 364.98 110.901 364.98 110.785 364.98 110.663 364.977 110.535 364.977 110.486 364.977 110.442 364.977 110.387 364.977 109.128 364.974 107.934 365.163 106.852 365.516 105.904 365.825 105.053 366.252 104.308 366.733 103.005 367.584 102.038 368.569 101.236 369.453 100.632 370.116 100.118 370.731 99.6494 371.25 99.296 371.637 98.9716 371.971 98.6699 372.24 98.2108 372.648 97.822 372.905 97.4143 373.078 97.0033 373.25 96.5504 373.367 95.8248 373.371 95.2114 373.371 94.7554 373.297 94.3764 373.194 94.0424 373.098 93.7599 372.977 93.4742 372.818 92.9797 372.542 92.4627 372.125 91.843 371.531 91.3775 371.088 90.8636 370.552 90.2568 369.967 89.8008 369.527 89.2934 369.061 88.7027 368.602 87.8194 367.915 86.7438 367.246 85.4595 366.769 84.1783 366.29 82.7173 366.024 81.1373 366.027 79.8272 366.026 78.575 366.246 77.4543 366.644 76.4715 366.99 75.5951 367.466 74.8341 367.997 73.4982 368.933 72.5029 370.004 71.6584 370.983 71.0256 371.72 70.4734 372.414 69.9662 373.009 69.2018 373.909 68.5341 374.557 67.9529 374.918 67.6606 375.105 67.3909 375.23 67.0921 375.32 66.7935 375.413 66.4531 375.469 66.0036 375.469 65.477 375.467 65.1076 375.392 64.7705 375.275 64.475 375.169 64.1992 375.027 63.8972 374.816 63.3673 374.451 62.7668 373.859 62.0924 373.07 61.5852 372.481 61.0392 371.792 60.4131 371.059 59.469 369.963 58.342 368.737 56.762 367.727 55.9753 367.224 55.076 366.788 54.0776 366.487 53.0822 366.187 51.9969 366.027 50.8696 366.027 49.6463 366.027 48.4934 366.183 47.4403 366.478 46.5187 366.736 45.6773 367.099 44.9323 367.516 43.6255 368.249 42.6269 369.129 41.808 369.906 41.1948 370.495 40.6777 371.036 40.2088 371.486 39.8588 371.823 39.5378 372.109 39.2389 372.34 38.7861 372.691 38.3944 372.921 37.9482 373.088 37.4984 373.253 36.9721 373.369 36.179 373.371 35.617 373.371 35.2189 373.297 34.8784 373.187 34.5796 373.09 34.3196 372.966 34.0404 372.786 33.5585 372.481 33.0257 371.988 32.4027 371.301 31.9372 370.792 31.4266 370.179 30.8294 369.519 30.383 369.023 29.8854 368.499 29.304 367.979 28.4406 367.199 27.3743 366.425 26.0675 365.863 24.7636 365.296 23.2415 364.972 21.617 364.977 21.5783 364.977 21.5142 364.977 21.4307 364.977 21.3247 364.98 21.2156 364.98 21.1031 364.98 20.4062 364.98 19.5971 364.951 18.8167 364.871 18.2356 364.81 17.6671 364.723 17.1886 364.611 17.0731 364.584 16.964 364.556 16.858 364.526 17.2111 364.099 17.6317 363.545 18.1135 362.819 19.8859 360.144 22.4549 355.228 25.2421 346.329 28.0295 337.429 31.035 324.54 33.6264 305.89L33.636 305.822 33.6425 305.751C34.4679 297.549 38.3403 290.252 44.1269 284.988 49.9131 279.729 57.5651 276.532 66.0038 276.531 74.4393 276.532 82.0945 279.729 87.8811 284.988 93.661 290.252 97.5335 297.549 98.362 305.751L98.3684 305.822 98.378 305.89C101.836 330.753 106.02 345.383 109.456 353.964 111.174 358.256 112.709 361.037 113.891 362.819 114.372 363.545 114.79 364.097 115.146 364.524 114.648 364.662 114.006 364.784 113.328 364.856Z" fill="#FFFFFF"/><path d="M56.1613 310.106C53.5571 310.106 51.441 312.219 51.441 314.826 51.441 317.436 53.5571 319.55 56.1613 319.55 58.7686 319.55 60.8847 317.436 60.8847 314.826 60.8847 312.219 58.7686 310.106 56.1613 310.106Z" fill="#FFFFFF"/><path d="M74.7471 310.106C72.1395 310.106 70.0267 312.219 70.0267 314.826 70.0267 317.436 72.1395 319.55 74.7471 319.55 77.3544 319.55 79.4674 317.436 79.4674 314.826 79.4674 312.219 77.3544 310.106 74.7471 310.106Z" fill="#FFFFFF"/></g></svg>