<svg width="136" height="137" xmlns="http://www.w3.org/2000/svg" xmlns:xlink="http://www.w3.org/1999/xlink" xml:space="preserve" overflow="hidden"><g transform="translate(-334 -585)"><path d="M68 102C86.7776 102 102 86.7776 102 68 102 49.2223 86.7776 34 68 34 49.2223 34 34 49.2223 34 68 34 86.7776 49.2223 102 68 102ZM68 90.6667C80.5182 90.6667 90.6667 80.5182 90.6667 68 90.6667 55.4815 80.5182 45.3333 68 45.3333 55.4815 45.3333 45.3333 55.4815 45.3333 68 45.3333 80.5182 55.4815 90.6667 68 90.6667Z" fill="#FFFFFF" fill-rule="evenodd" transform="matrix(1 0 0 1.00735 334 585)"/><path d="M102 28.3333C98.8703 28.3333 96.3333 30.8704 96.3333 34 96.3333 37.1296 98.8703 39.6667 102 39.6667 105.13 39.6667 107.667 37.1296 107.667 34 107.667 30.8704 105.13 28.3333 102 28.3333Z" fill="#FFFFFF" transform="matrix(1 0 0 1.00735 334 585)"/><path d="M9.37244 24.231C5.66667 31.504 5.66667 41.0249 5.66667 60.0667L5.66667 75.9333C5.66667 94.975 5.66667 104.496 9.37244 111.769 12.6321 118.166 17.8335 123.368 24.231 126.627 31.504 130.333 41.0249 130.333 60.0667 130.333L75.9333 130.333C94.975 130.333 104.496 130.333 111.769 126.627 118.166 123.368 123.368 118.166 126.627 111.769 130.333 104.496 130.333 94.975 130.333 75.9333L130.333 60.0667C130.333 41.0249 130.333 31.504 126.627 24.231 123.368 17.8335 118.166 12.6321 111.769 9.37244 104.496 5.66667 94.975 5.66667 75.9333 5.66667L60.0667 5.66667C41.0249 5.66667 31.504 5.66667 24.231 9.37244 17.8335 12.6321 12.6321 17.8335 9.37244 24.231ZM75.9333 17 60.0667 17C50.3588 17 43.7594 17.0088 38.6585 17.4256 33.6897 17.8315 31.1488 18.5673 29.3762 19.4705 25.1112 21.6437 21.6437 25.1112 19.4705 29.3762 18.5673 31.1488 17.8315 33.6897 17.4256 38.6585 17.0088 43.7594 17 50.3588 17 60.0667L17 75.9333C17 85.6415 17.0088 92.2403 17.4256 97.3414 17.8315 102.311 18.5673 104.851 19.4705 106.624 21.6437 110.889 25.1112 114.356 29.3762 116.529 31.1488 117.433 33.6897 118.169 38.6585 118.574 43.7594 118.991 50.3588 119 60.0667 119L75.9333 119C85.6415 119 92.2403 118.991 97.3414 118.574 102.311 118.169 104.851 117.433 106.624 116.529 110.889 114.356 114.356 110.889 116.529 106.624 117.433 104.851 118.169 102.311 118.574 97.3414 118.991 92.2403 119 85.6415 119 75.9333L119 60.0667C119 50.3588 118.991 43.7594 118.574 38.6585 118.169 33.6897 117.433 31.1488 116.529 29.3762 114.356 25.1112 110.889 21.6437 106.624 19.4705 104.851 18.5673 102.311 17.8315 97.3414 17.4256 92.2403 17.0088 85.6415 17 75.9333 17Z" fill="#FFFFFF" fill-rule="evenodd" transform="matrix(1 0 0 1.00735 334 585)"/></g></svg>