<svg width="146" height="147" xmlns="http://www.w3.org/2000/svg" xmlns:xlink="http://www.w3.org/1999/xlink" xml:space="preserve" overflow="hidden"><g transform="translate(-492 -580)"><path d="M93.8164 41.3477-29.3711 41.3477C-35.673 41.3477-40.7773 46.452-40.7773 52.7539L-40.7773 175.941C-40.7773 182.243-35.673 187.348-29.3711 187.348L93.8164 187.348C100.118 187.348 105.223 182.243 105.223 175.941L105.223 52.7539C105.223 46.452 100.118 41.3477 93.8164 41.3477ZM11.8055 144.888-2.42383 144.888-2.42383 99.3484 11.8055 99.3484 11.8055 144.888ZM4.30586 93.6453 4.1918 93.6453C-0.969531 93.6453-4.30586 90.1664-4.30586 85.7465-4.30586 81.241-0.855469 77.8477 4.39141 77.8477 9.63828 77.8477 12.8605 81.241 12.9746 85.7465 13.0031 90.1379 9.6668 93.6453 4.30586 93.6453ZM68.7227 144.888 52.5828 144.888 52.5828 121.334C52.5828 115.175 50.0734 110.954 44.5129 110.954 40.2641 110.954 37.8973 113.806 36.8137 116.543 36.4145 117.513 36.4715 118.882 36.4715 120.279L36.4715 144.888 20.4742 144.888C20.4742 144.888 20.6738 103.141 20.4742 99.3484L36.4715 99.3484 36.4715 106.506C37.4125 103.369 42.5168 98.9207 50.6723 98.9207 60.7953 98.9207 68.7227 105.479 68.7227 119.566L68.7227 144.888Z" fill="#FFFFFF" transform="matrix(1 0 0 1.00685 532.777 538.369)"/></g></svg>