<svg width="113" height="113" xmlns="http://www.w3.org/2000/svg" xmlns:xlink="http://www.w3.org/1999/xlink" xml:space="preserve" overflow="hidden"><g transform="translate(-808 -619)"><path d="M864.5 619C841.098 619 822.125 637.973 822.125 661.375 822.125 670.59 825.146 679.045 830.167 685.97 830.257 686.136 830.272 686.322 830.374 686.48L858.624 728.855C859.934 730.821 862.141 732 864.5 732 866.859 732 869.066 730.821 870.376 728.855L898.626 686.48C898.73 686.322 898.743 686.136 898.833 685.97 903.854 679.045 906.875 670.59 906.875 661.375 906.875 637.973 887.902 619 864.5 619ZM864.5 675.5C856.699 675.5 850.375 669.176 850.375 661.375 850.375 653.574 856.699 647.25 864.5 647.25 872.301 647.25 878.625 653.574 878.625 661.375 878.625 669.176 872.301 675.5 864.5 675.5Z" fill="#FFFFFF"/></g></svg>