<svg width="136" height="136" xmlns="http://www.w3.org/2000/svg" xmlns:xlink="http://www.w3.org/1999/xlink" xml:space="preserve" overflow="hidden"><g transform="translate(-796 -371)"><path d="M830.079 416.368C830.727 411.247 837.382 404.287 842.664 405.059L842.656 405.051C847.796 406.027 851.865 414.875 854.16 418.853 855.786 421.739 854.73 424.664 853.214 425.898 851.168 427.547 847.969 429.822 848.64 432.106 849.833 436.167 864 450.333 870.968 454.361 873.605 455.885 875.518 451.864 877.151 449.805 878.337 448.22 881.264 447.273 884.144 448.837 888.445 451.342 892.497 454.253 896.243 457.53 898.115 459.094 898.554 461.405 897.257 463.848 894.973 468.151 888.368 473.825 883.574 472.672 875.2 470.659 841.333 457.53 830.455 419.495 829.843 417.696 829.997 417.016 830.079 416.368Z" fill="#FFFFFF"/><path d="M864 501.333C857.066 501.333 853.23 500.589 847 498.5L835.068 504.466C827.533 508.234 818.667 502.754 818.667 494.329L818.667 481.5C806.464 470.121 801.667 457.001 801.667 439 801.667 404.574 829.574 376.667 864 376.667 898.426 376.667 926.333 404.574 926.333 439 926.333 473.426 898.426 501.333 864 501.333ZM830 476.572 826.396 473.211C816.915 464.371 813 454.488 813 439 813 410.833 835.833 388 864 388 892.167 388 915 410.833 915 439 915 467.167 892.167 490 864 490 858.414 490 855.795 489.496 850.604 487.755L846.141 486.258 830 494.329 830 476.572Z" fill="#FFFFFF" fill-rule="evenodd"/></g></svg>