<svg width="114" height="114" xmlns="http://www.w3.org/2000/svg" xmlns:xlink="http://www.w3.org/1999/xlink" xml:space="preserve" overflow="hidden"><defs><clipPath id="clip0"><rect x="9" y="610" width="114" height="114"/></clipPath></defs><g clip-path="url(#clip0)" transform="translate(-9 -610)"><path d="M85.6383 654.709C84.4805 651.013 86.5289 647.05 90.225 645.892 93.9211 644.734 97.8844 646.783 99.0422 650.479 100.2 654.175 98.1516 658.138 94.4555 659.296 90.7594 660.498 86.8406 658.45 85.6383 654.709ZM13.8984 659.296C17.5945 660.454 21.5578 658.405 22.7156 654.709 23.8734 651.013 21.825 647.05 18.1289 645.892 14.4328 644.734 10.4695 646.783 9.31172 650.479 8.15391 654.175 10.2023 658.138 13.8984 659.296ZM122.688 666.198C122.866 666.777 122.955 667.401 122.955 668.024L121.174 685.391C120.818 688.687 119.081 690.869 115.875 691.848L97.35 697.727C97.35 697.727 92.9859 711.531 92.9414 711.531 92.3625 713.535 90.5367 715.005 88.3102 715.005 85.6383 715.005 83.4562 712.823 83.4562 710.151 83.4562 709.305 84.0797 707.791 84.0797 707.791 84.1688 707.479 87.9539 697.014 89.5125 692.695L73.7484 697.682C73.7484 697.682 69.3844 711.487 69.3398 711.487 68.7609 713.491 66.9352 714.96 64.7086 714.96 62.0367 714.96 59.8547 712.778 59.8547 710.106 59.8547 709.26 60.4781 707.746 60.4781 707.746 60.5672 707.345 66.5344 690.824 66.5344 690.824 67.0687 689.8 67.9594 689.088 69.2063 688.687L82.7438 684.412C82.7438 684.412 83.1445 674.303 83.1445 674.125L73.3031 674.125 64.1297 677.02C62.1703 677.643 60.0328 676.53 59.4094 674.57 59.3648 674.437 59.3203 674.259 59.3203 674.125L48.9445 674.125C48.9 674.259 48.9 674.437 48.8555 674.57 48.232 676.53 46.1391 677.643 44.1352 677.02L25.1203 671.008 25.5211 684.412 39.0586 688.687C40.3055 689.088 41.1961 689.8 41.7305 690.824 41.7305 690.824 47.6977 707.345 47.7867 707.746 47.7867 707.746 48.4102 709.26 48.4102 710.106 48.4102 712.778 46.2281 714.96 43.5562 714.96 41.3742 714.96 39.5484 713.491 38.925 711.487 38.925 711.442 34.5164 697.682 34.5164 697.682L16.0359 691.848C12.8297 690.824 11.0484 688.687 10.7367 685.391L8.95547 668.024C8.95547 667.401 9.04453 666.777 9.22266 666.198 9.84609 664.15 11.1375 662.68 13.0523 661.745 14.9672 660.81 16.9266 660.677 18.975 661.3L46.4062 669.984C47.3859 670.295 48.0984 671.008 48.5438 671.898L59.8547 671.898C60.3 671.008 61.057 670.295 61.9922 669.984L89.4234 661.211C91.4719 660.588 93.4313 660.721 95.3461 661.656 97.0828 662.547 98.2852 663.883 98.9977 665.664L112.98 661.255C115.029 660.632 116.988 660.766 118.903 661.701 120.773 662.68 122.02 664.15 122.688 666.198ZM106.835 671.052 98.8641 673.591 98.8641 673.591 88.5773 676.708 89.1117 678.4 98.7305 675.505 97.7062 685.347C97.6172 686.104 97.4836 686.772 97.2609 687.395L106.523 684.456 106.835 671.052ZM118.013 659.385C121.709 658.227 123.757 654.264 122.599 650.568 121.441 646.872 117.478 644.823 113.782 645.981 110.086 647.139 108.037 651.102 109.195 654.798 110.353 658.495 114.316 660.543 118.013 659.385Z" fill="#FFFFFF"/></g></svg>